<svg width="36" height="33" viewBox="0 0 36 33" fill="none" xmlns="http://www.w3.org/2000/svg">
<path d="M23.5805 16.5244C23.5805 17.8901 23.0002 19.1998 21.967 20.1655C20.9339 21.1311 19.5327 21.6736 18.0717 21.6736C16.6107 21.6736 15.2095 21.1311 14.1763 20.1655C13.1432 19.1998 12.5628 17.8901 12.5628 16.5244C12.5628 16.2309 12.5959 15.9443 12.6528 15.6662H10.7266V22.5267C10.7266 23.0039 11.1397 23.3901 11.6502 23.3901H24.495C24.7397 23.3896 24.9741 23.2984 25.147 23.1366C25.3198 22.9747 25.4168 22.7554 25.4168 22.5267V15.6662H23.4906C23.5475 15.9443 23.5805 16.2309 23.5805 16.5244ZM18.0717 19.9572C18.5541 19.9571 19.0318 19.8682 19.4774 19.6955C19.923 19.5229 20.3279 19.2699 20.669 18.9509C21.01 18.632 21.2805 18.2534 21.465 17.8368C21.6495 17.4201 21.7444 16.9736 21.7443 16.5227C21.7441 16.0718 21.649 15.6253 21.4643 15.2088C21.2796 14.7922 21.0089 14.4137 20.6677 14.095C20.3265 13.7762 19.9214 13.5234 19.4757 13.3509C19.03 13.1785 18.5523 13.0898 18.0699 13.0899C17.0956 13.0901 16.1613 13.4521 15.4726 14.0962C14.7838 14.7403 14.397 15.6137 14.3973 16.5244C14.3975 17.4351 14.7848 18.3084 15.4739 18.9521C16.163 19.5959 17.0974 19.9575 18.0717 19.9572ZM22.4788 12.92H24.6805C24.8268 12.92 24.9671 12.8658 25.0707 12.7692C25.1743 12.6727 25.2327 12.5418 25.2332 12.405V10.3471C25.2332 10.21 25.175 10.0786 25.0713 9.98174C24.9677 9.88485 24.8271 9.83042 24.6805 9.83042H22.4788C22.3322 9.83042 22.1916 9.88485 22.0879 9.98174C21.9843 10.0786 21.9261 10.21 21.9261 10.3471V12.405C21.9279 12.6882 22.1758 12.92 22.4788 12.92ZM18.0717 0.046875C13.3964 0.046875 8.91253 1.7829 5.60658 4.87303C2.30062 7.96317 0.443359 12.1543 0.443359 16.5244C0.443359 20.8945 2.30062 25.0857 5.60658 28.1758C8.91253 31.2659 13.3964 33.002 18.0717 33.002C20.3867 33.002 22.679 32.5758 24.8178 31.7477C26.9565 30.9196 28.8999 29.7059 30.5368 28.1758C32.1738 26.6457 33.4722 24.8292 34.3582 22.8301C35.2441 20.831 35.7 18.6883 35.7 16.5244C35.7 14.3606 35.2441 12.2179 34.3582 10.2187C33.4722 8.21959 32.1738 6.40312 30.5368 4.87303C28.8999 3.34295 26.9565 2.12923 24.8178 1.30115C22.679 0.473079 20.3867 0.046875 18.0717 0.046875ZM27.2531 23.1995C27.2531 24.2483 26.335 25.1065 25.213 25.1065H10.9304C9.80841 25.1065 8.89027 24.2483 8.89027 23.1995V9.8493C8.89027 8.80057 9.80841 7.94236 10.9304 7.94236H25.213C26.335 7.94236 27.2531 8.80057 27.2531 9.8493V23.1995Z" fill="white"/>
</svg>
