<svg width="62" height="26" viewBox="0 0 62 26" fill="none" xmlns="http://www.w3.org/2000/svg">
<path d="M19 21H5C4.46957 21 3.96086 20.7893 3.58579 20.4142C3.21071 20.0391 3 19.5304 3 19V5C3 4.46957 3.21071 3.96086 3.58579 3.58579C3.96086 3.21071 4.46957 3 5 3H16L21 8V19C21 19.5304 20.7893 20.0391 20.4142 20.4142C20.0391 20.7893 19.5304 21 19 21Z" stroke="#7F7F7F" stroke-width="1.3" stroke-linecap="round" stroke-linejoin="round"/>
<path d="M17 21V13H7V21" stroke="#7F7F7F" stroke-width="1.3" stroke-linecap="round" stroke-linejoin="round"/>
<path d="M7 3V8H15" stroke="#7F7F7F" stroke-width="1.3" stroke-linecap="round" stroke-linejoin="round"/>
<path d="M34.466 18.154C32.884 18.154 31.638 17.58 30.672 16.628L31.358 15.774C32.17 16.586 33.164 17.16 34.508 17.16C35.992 17.16 36.748 16.348 36.748 15.48C36.748 14.458 35.838 14.052 34.158 13.66C32.226 13.212 31.008 12.61 31.008 10.944C31.008 9.404 32.38 8.2 34.228 8.2C35.656 8.2 36.72 8.76 37.602 9.572L36.93 10.426C36.132 9.656 35.18 9.194 34.172 9.194C32.982 9.194 32.114 9.978 32.114 10.86C32.114 11.854 33.066 12.204 34.704 12.596C36.538 13.03 37.854 13.688 37.854 15.382C37.854 16.908 36.706 18.154 34.466 18.154ZM42.4919 10.594C44.4659 10.594 45.4319 11.84 45.4319 13.59V18H44.3819V16.866C43.8639 17.72 42.7859 18.168 41.8339 18.168C40.3079 18.168 39.1879 17.286 39.1879 15.858C39.1879 14.416 40.4759 13.45 42.0299 13.45C42.8139 13.45 43.6399 13.618 44.3819 13.856V13.59C44.3819 12.61 43.9899 11.49 42.4219 11.49C41.6939 11.49 40.9659 11.812 40.3079 12.148L39.8879 11.294C40.9239 10.776 41.7919 10.594 42.4919 10.594ZM42.0159 17.244C42.9679 17.244 44.1019 16.754 44.3819 15.732V14.626C43.7239 14.444 42.9819 14.332 42.1979 14.332C41.1199 14.332 40.2099 14.948 40.2099 15.816C40.2099 16.712 40.9939 17.244 42.0159 17.244ZM49.543 18L46.463 10.762H47.639L50.047 16.768L52.413 10.762H53.589L50.551 18H49.543ZM58.0116 17.23C58.8656 17.23 59.8456 16.852 60.2936 16.362L60.9376 17.048C60.3076 17.734 59.0336 18.168 58.0256 18.168C56.0936 18.168 54.3576 16.586 54.3576 14.36C54.3576 12.204 55.9816 10.594 57.9276 10.594C60.1116 10.594 61.3576 12.246 61.3576 14.78H55.4356C55.5896 16.194 56.5836 17.23 58.0116 17.23ZM57.9696 11.532C56.6816 11.532 55.6456 12.442 55.4496 13.842H60.3216C60.1816 12.54 59.4116 11.532 57.9696 11.532Z" fill="#7F7F7F"/>
</svg>
