<svg width="36" height="33" viewBox="0 0 36 33" fill="none" xmlns="http://www.w3.org/2000/svg">
<path d="M17.8295 0.046875C8.09353 0.046875 0.201172 7.42401 0.201172 16.5244C0.201172 25.6248 8.09353 33.002 17.8295 33.002C27.5655 33.002 35.4578 25.6248 35.4578 16.5244C35.4578 7.42401 27.5655 0.046875 17.8295 0.046875ZM25.0002 13.5447C25.0075 13.6855 25.0094 13.8262 25.0094 13.9635C25.0094 18.2546 21.5186 23.1995 15.132 23.1995C13.2448 23.2025 11.3969 22.6959 9.81045 21.7406C10.0804 21.7715 10.3577 21.7835 10.6386 21.7835C12.2656 21.7835 13.7621 21.2669 14.9502 20.3949C14.2262 20.3816 13.5247 20.1575 12.9434 19.7539C12.3621 19.3502 11.93 18.7871 11.7073 18.143C12.2273 18.2354 12.7629 18.216 13.2737 18.0864C12.4878 17.9378 11.7811 17.5398 11.2734 16.9598C10.7657 16.3798 10.4882 15.6535 10.488 14.9041V14.8646C10.9563 15.1067 11.4925 15.2543 12.0617 15.2714C11.325 14.813 10.8035 14.1089 10.6038 13.3029C10.4041 12.497 10.5414 11.6502 10.9875 10.9358C11.8597 11.9382 12.9473 12.7582 14.18 13.3427C15.4127 13.9273 16.763 14.2633 18.1435 14.3291C17.968 13.6328 18.0435 12.9018 18.3584 12.2497C18.6732 11.5976 19.2097 11.0611 19.8844 10.7234C20.5592 10.3857 21.3344 10.2659 22.0895 10.3825C22.8446 10.4992 23.5374 10.8457 24.06 11.3683C24.8371 11.2246 25.5823 10.9582 26.2636 10.5805C26.0046 11.3325 25.4623 11.9711 24.7376 12.3776C25.4259 12.3001 26.0981 12.1271 26.7318 11.8644C26.2663 12.5164 25.6799 13.0855 25.0002 13.5447Z" fill="white"/>
</svg>
